<?xml version="1.0" encoding="UTF-8" standalone="no"?>
<!DOCTYPE svg PUBLIC "-//W3C//DTD SVG 1.1//EN"
 "http://www.w3.org/Graphics/SVG/1.1/DTD/svg11.dtd">
<!-- Generated by graphviz version 3.0.0 (0)
 -->
<!-- Title: parse_tree Pages: 1 -->
<svg width="978pt" height="511pt"
 viewBox="0.00 0.00 978.41 511.48" xmlns="http://www.w3.org/2000/svg" xmlns:xlink="http://www.w3.org/1999/xlink">
<g id="graph0" class="graph" transform="scale(1 1) rotate(0) translate(4 507.48)">
<title>parse_tree</title>
<polygon fill="white" stroke="transparent" points="-4,4 -4,-507.48 974.41,-507.48 974.41,4 -4,4"/>
<!-- x0x55bbaf231f90 -->
<g id="node1" class="node">
<title>x0x55bbaf231f90</title>
<ellipse fill="none" stroke="black" cx="443.11" cy="-485.48" rx="38.19" ry="18"/>
<text text-anchor="middle" x="443.11" y="-481.78" font-family="Times,serif" font-size="14.00">ROOT</text>
</g>
<!-- x0x55bbaf2322d0 -->
<g id="node2" class="node">
<title>x0x55bbaf2322d0</title>
<ellipse fill="none" stroke="black" cx="443.11" cy="-413.48" rx="37.09" ry="18"/>
<text text-anchor="middle" x="443.11" y="-409.78" font-family="Times,serif" font-size="14.00">scene</text>
</g>
<!-- x0x55bbaf231f90&#45;&gt;x0x55bbaf2322d0 -->
<g id="edge1" class="edge">
<title>x0x55bbaf231f90&#45;&gt;x0x55bbaf2322d0</title>
<path fill="none" stroke="black" d="M443.11,-467.18C443.11,-459.46 443.11,-450.19 443.11,-441.59"/>
<polygon fill="black" stroke="black" points="446.61,-441.58 443.11,-431.58 439.61,-441.58 446.61,-441.58"/>
</g>
<!-- x0x55bbaf232560 -->
<g id="node3" class="node">
<title>x0x55bbaf232560</title>
<ellipse fill="none" stroke="black" cx="443.11" cy="-341.48" rx="57.69" ry="18"/>
<text text-anchor="middle" x="443.11" y="-337.78" font-family="Times,serif" font-size="14.00">object_list</text>
</g>
<!-- x0x55bbaf2322d0&#45;&gt;x0x55bbaf232560 -->
<g id="edge2" class="edge">
<title>x0x55bbaf2322d0&#45;&gt;x0x55bbaf232560</title>
<path fill="none" stroke="black" d="M443.11,-395.18C443.11,-387.46 443.11,-378.19 443.11,-369.59"/>
<polygon fill="black" stroke="black" points="446.61,-369.58 443.11,-359.58 439.61,-369.58 446.61,-369.58"/>
</g>
<!-- x0x55bbaf2326e0 -->
<g id="node4" class="node">
<title>x0x55bbaf2326e0</title>
<ellipse fill="none" stroke="black" cx="350.11" cy="-269.48" rx="38.99" ry="18"/>
<text text-anchor="middle" x="350.11" y="-265.78" font-family="Times,serif" font-size="14.00">object</text>
</g>
<!-- x0x55bbaf232560&#45;&gt;x0x55bbaf2326e0 -->
<g id="edge3" class="edge">
<title>x0x55bbaf232560&#45;&gt;x0x55bbaf2326e0</title>
<path fill="none" stroke="black" d="M422.01,-324.6C408.96,-314.78 392.07,-302.06 377.93,-291.42"/>
<polygon fill="black" stroke="black" points="379.64,-288.33 369.55,-285.11 375.43,-293.92 379.64,-288.33"/>
</g>
<!-- x0x55bbaf2327e0 -->
<g id="node5" class="node">
<title>x0x55bbaf2327e0</title>
<ellipse fill="none" stroke="black" cx="670.11" cy="-269.48" rx="38.99" ry="18"/>
<text text-anchor="middle" x="670.11" y="-265.78" font-family="Times,serif" font-size="14.00">object</text>
</g>
<!-- x0x55bbaf232560&#45;&gt;x0x55bbaf2327e0 -->
<g id="edge4" class="edge">
<title>x0x55bbaf232560&#45;&gt;x0x55bbaf2327e0</title>
<path fill="none" stroke="black" d="M482.65,-328.29C523.61,-315.66 587.32,-296.01 628.89,-283.19"/>
<polygon fill="black" stroke="black" points="630.17,-286.46 638.69,-280.17 628.1,-279.77 630.17,-286.46"/>
</g>
<!-- x0x55bbaf232a70 -->
<g id="node6" class="node">
<title>x0x55bbaf232a70</title>
<ellipse fill="none" stroke="black" cx="136.11" cy="-197.48" rx="48.19" ry="18"/>
<text text-anchor="middle" x="136.11" y="-193.78" font-family="Times,serif" font-size="14.00">position</text>
</g>
<!-- x0x55bbaf2326e0&#45;&gt;x0x55bbaf232a70 -->
<g id="edge5" class="edge">
<title>x0x55bbaf2326e0&#45;&gt;x0x55bbaf232a70</title>
<path fill="none" stroke="black" d="M319,-258.3C282.61,-246.4 222.12,-226.61 180.74,-213.08"/>
<polygon fill="black" stroke="black" points="181.77,-209.73 171.18,-209.95 179.6,-216.39 181.77,-209.73"/>
</g>
<!-- x0x55bbaf232af0 -->
<g id="node7" class="node">
<title>x0x55bbaf232af0</title>
<ellipse fill="none" stroke="black" cx="273.11" cy="-197.48" rx="55.49" ry="18"/>
<text text-anchor="middle" x="273.11" y="-193.78" font-family="Times,serif" font-size="14.00">geometry</text>
</g>
<!-- x0x55bbaf2326e0&#45;&gt;x0x55bbaf232af0 -->
<g id="edge6" class="edge">
<title>x0x55bbaf2326e0&#45;&gt;x0x55bbaf232af0</title>
<path fill="none" stroke="black" d="M333.02,-252.94C322.87,-243.72 309.81,-231.84 298.47,-221.53"/>
<polygon fill="black" stroke="black" points="300.71,-218.84 290.96,-214.7 296,-224.02 300.71,-218.84"/>
</g>
<!-- x0x55bbaf232d90 -->
<g id="node8" class="node">
<title>x0x55bbaf232d90</title>
<ellipse fill="none" stroke="black" cx="426.11" cy="-197.48" rx="79.09" ry="18"/>
<text text-anchor="middle" x="426.11" y="-193.78" font-family="Times,serif" font-size="14.00">material_name</text>
</g>
<!-- x0x55bbaf2326e0&#45;&gt;x0x55bbaf232d90 -->
<g id="edge7" class="edge">
<title>x0x55bbaf2326e0&#45;&gt;x0x55bbaf232d90</title>
<path fill="none" stroke="black" d="M366.98,-252.94C376.86,-243.85 389.53,-232.18 400.61,-221.97"/>
<polygon fill="black" stroke="black" points="402.98,-224.54 407.97,-215.19 398.24,-219.39 402.98,-224.54"/>
</g>
<!-- x0x55bbaf2325e0 -->
<g id="node15" class="node">
<title>x0x55bbaf2325e0</title>
<ellipse fill="none" stroke="black" cx="606.11" cy="-197.48" rx="48.19" ry="18"/>
<text text-anchor="middle" x="606.11" y="-193.78" font-family="Times,serif" font-size="14.00">position</text>
</g>
<!-- x0x55bbaf2327e0&#45;&gt;x0x55bbaf2325e0 -->
<g id="edge14" class="edge">
<title>x0x55bbaf2327e0&#45;&gt;x0x55bbaf2325e0</title>
<path fill="none" stroke="black" d="M655.59,-252.6C647.44,-243.68 637.11,-232.39 628,-222.42"/>
<polygon fill="black" stroke="black" points="630.35,-219.81 621.02,-214.79 625.19,-224.53 630.35,-219.81"/>
</g>
<!-- x0x55bbaf2330d0 -->
<g id="node16" class="node">
<title>x0x55bbaf2330d0</title>
<ellipse fill="none" stroke="black" cx="734.11" cy="-197.48" rx="55.49" ry="18"/>
<text text-anchor="middle" x="734.11" y="-193.78" font-family="Times,serif" font-size="14.00">geometry</text>
</g>
<!-- x0x55bbaf2327e0&#45;&gt;x0x55bbaf2330d0 -->
<g id="edge15" class="edge">
<title>x0x55bbaf2327e0&#45;&gt;x0x55bbaf2330d0</title>
<path fill="none" stroke="black" d="M684.64,-252.6C692.67,-243.81 702.82,-232.71 711.83,-222.85"/>
<polygon fill="black" stroke="black" points="714.59,-225.02 718.76,-215.28 709.42,-220.3 714.59,-225.02"/>
</g>
<!-- x0x55bbaf233370 -->
<g id="node17" class="node">
<title>x0x55bbaf233370</title>
<ellipse fill="none" stroke="black" cx="891.11" cy="-197.48" rx="79.09" ry="18"/>
<text text-anchor="middle" x="891.11" y="-193.78" font-family="Times,serif" font-size="14.00">material_name</text>
</g>
<!-- x0x55bbaf2327e0&#45;&gt;x0x55bbaf233370 -->
<g id="edge16" class="edge">
<title>x0x55bbaf2327e0&#45;&gt;x0x55bbaf233370</title>
<path fill="none" stroke="black" d="M701.31,-258.6C736.52,-247.45 794.44,-229.1 837.05,-215.6"/>
<polygon fill="black" stroke="black" points="838.24,-218.9 846.72,-212.54 836.12,-212.23 838.24,-218.9"/>
</g>
<!-- x0x55bbaf232b70 -->
<g id="node9" class="node">
<title>x0x55bbaf232b70</title>
<ellipse fill="none" stroke="black" cx="31.11" cy="-116.61" rx="31.23" ry="26.74"/>
<text text-anchor="middle" x="31.11" y="-120.41" font-family="Times,serif" font-size="14.00">real</text>
<text text-anchor="middle" x="31.11" y="-105.41" font-family="Times,serif" font-size="14.00">&quot;1&quot;</text>
</g>
<!-- x0x55bbaf232a70&#45;&gt;x0x55bbaf232b70 -->
<g id="edge8" class="edge">
<title>x0x55bbaf232a70&#45;&gt;x0x55bbaf232b70</title>
<path fill="none" stroke="black" d="M115.62,-181.09C100.44,-169.68 79.48,-153.94 62.24,-140.99"/>
<polygon fill="black" stroke="black" points="64.21,-138.09 54.11,-134.89 60,-143.69 64.21,-138.09"/>
</g>
<!-- x0x55bbaf232bf0 -->
<g id="node10" class="node">
<title>x0x55bbaf232bf0</title>
<ellipse fill="none" stroke="black" cx="111.11" cy="-116.61" rx="31.23" ry="26.74"/>
<text text-anchor="middle" x="111.11" y="-120.41" font-family="Times,serif" font-size="14.00">real</text>
<text text-anchor="middle" x="111.11" y="-105.41" font-family="Times,serif" font-size="14.00">&quot;2&quot;</text>
</g>
<!-- x0x55bbaf232a70&#45;&gt;x0x55bbaf232bf0 -->
<g id="edge9" class="edge">
<title>x0x55bbaf232a70&#45;&gt;x0x55bbaf232bf0</title>
<path fill="none" stroke="black" d="M130.69,-179.37C128.17,-171.43 125.09,-161.7 122.12,-152.32"/>
<polygon fill="black" stroke="black" points="125.45,-151.25 119.09,-142.78 118.78,-153.37 125.45,-151.25"/>
</g>
<!-- x0x55bbaf232c90 -->
<g id="node11" class="node">
<title>x0x55bbaf232c90</title>
<ellipse fill="none" stroke="black" cx="191.11" cy="-116.61" rx="31.23" ry="26.74"/>
<text text-anchor="middle" x="191.11" y="-120.41" font-family="Times,serif" font-size="14.00">real</text>
<text text-anchor="middle" x="191.11" y="-105.41" font-family="Times,serif" font-size="14.00">&quot;3&quot;</text>
</g>
<!-- x0x55bbaf232a70&#45;&gt;x0x55bbaf232c90 -->
<g id="edge10" class="edge">
<title>x0x55bbaf232a70&#45;&gt;x0x55bbaf232c90</title>
<path fill="none" stroke="black" d="M147.78,-179.75C154.15,-170.62 162.24,-159.02 169.7,-148.32"/>
<polygon fill="black" stroke="black" points="172.65,-150.2 175.5,-140 166.91,-146.2 172.65,-150.2"/>
</g>
<!-- x0x55bbaf232d10 -->
<g id="node12" class="node">
<title>x0x55bbaf232d10</title>
<ellipse fill="none" stroke="black" cx="282.11" cy="-116.61" rx="42.49" ry="18"/>
<text text-anchor="middle" x="282.11" y="-112.91" font-family="Times,serif" font-size="14.00">sphere</text>
</g>
<!-- x0x55bbaf232af0&#45;&gt;x0x55bbaf232d10 -->
<g id="edge11" class="edge">
<title>x0x55bbaf232af0&#45;&gt;x0x55bbaf232d10</title>
<path fill="none" stroke="black" d="M275.07,-179.37C276.22,-169.24 277.71,-156.18 279.02,-144.68"/>
<polygon fill="black" stroke="black" points="282.51,-145.02 280.16,-134.69 275.55,-144.23 282.51,-145.02"/>
</g>
<!-- x0x55bbaf232e10 -->
<g id="node14" class="node">
<title>x0x55bbaf232e10</title>
<ellipse fill="none" stroke="black" cx="417.11" cy="-116.61" rx="57.97" ry="26.74"/>
<text text-anchor="middle" x="417.11" y="-120.41" font-family="Times,serif" font-size="14.00">identifier</text>
<text text-anchor="middle" x="417.11" y="-105.41" font-family="Times,serif" font-size="14.00">&quot;mat1&quot;</text>
</g>
<!-- x0x55bbaf232d90&#45;&gt;x0x55bbaf232e10 -->
<g id="edge13" class="edge">
<title>x0x55bbaf232d90&#45;&gt;x0x55bbaf232e10</title>
<path fill="none" stroke="black" d="M424.16,-179.37C423.31,-171.88 422.27,-162.79 421.25,-153.91"/>
<polygon fill="black" stroke="black" points="424.7,-153.23 420.09,-143.69 417.75,-154.03 424.7,-153.23"/>
</g>
<!-- x0x55bbaf232f90 -->
<g id="node13" class="node">
<title>x0x55bbaf232f90</title>
<ellipse fill="none" stroke="black" cx="282.11" cy="-26.87" rx="37.45" ry="26.74"/>
<text text-anchor="middle" x="282.11" y="-30.67" font-family="Times,serif" font-size="14.00">real</text>
<text text-anchor="middle" x="282.11" y="-15.67" font-family="Times,serif" font-size="14.00">&quot;1.0&quot;</text>
</g>
<!-- x0x55bbaf232d10&#45;&gt;x0x55bbaf232f90 -->
<g id="edge12" class="edge">
<title>x0x55bbaf232d10&#45;&gt;x0x55bbaf232f90</title>
<path fill="none" stroke="black" d="M282.11,-98.28C282.11,-88.46 282.11,-75.82 282.11,-63.95"/>
<polygon fill="black" stroke="black" points="285.61,-63.82 282.11,-53.82 278.61,-63.82 285.61,-63.82"/>
</g>
<!-- x0x55bbaf233150 -->
<g id="node18" class="node">
<title>x0x55bbaf233150</title>
<ellipse fill="none" stroke="black" cx="524.11" cy="-116.61" rx="31.23" ry="26.74"/>
<text text-anchor="middle" x="524.11" y="-120.41" font-family="Times,serif" font-size="14.00">real</text>
<text text-anchor="middle" x="524.11" y="-105.41" font-family="Times,serif" font-size="14.00">&quot;4&quot;</text>
</g>
<!-- x0x55bbaf2325e0&#45;&gt;x0x55bbaf233150 -->
<g id="edge17" class="edge">
<title>x0x55bbaf2325e0&#45;&gt;x0x55bbaf233150</title>
<path fill="none" stroke="black" d="M589.52,-180.52C578.74,-170.16 564.44,-156.39 551.95,-144.38"/>
<polygon fill="black" stroke="black" points="554.09,-141.59 544.46,-137.18 549.24,-146.63 554.09,-141.59"/>
</g>
<!-- x0x55bbaf2331d0 -->
<g id="node19" class="node">
<title>x0x55bbaf2331d0</title>
<ellipse fill="none" stroke="black" cx="604.11" cy="-116.61" rx="31.23" ry="26.74"/>
<text text-anchor="middle" x="604.11" y="-120.41" font-family="Times,serif" font-size="14.00">real</text>
<text text-anchor="middle" x="604.11" y="-105.41" font-family="Times,serif" font-size="14.00">&quot;5&quot;</text>
</g>
<!-- x0x55bbaf2325e0&#45;&gt;x0x55bbaf2331d0 -->
<g id="edge18" class="edge">
<title>x0x55bbaf2325e0&#45;&gt;x0x55bbaf2331d0</title>
<path fill="none" stroke="black" d="M605.68,-179.37C605.49,-171.88 605.26,-162.79 605.03,-153.91"/>
<polygon fill="black" stroke="black" points="608.53,-153.6 604.77,-143.69 601.53,-153.78 608.53,-153.6"/>
</g>
<!-- x0x55bbaf233270 -->
<g id="node20" class="node">
<title>x0x55bbaf233270</title>
<ellipse fill="none" stroke="black" cx="684.11" cy="-116.61" rx="31.23" ry="26.74"/>
<text text-anchor="middle" x="684.11" y="-120.41" font-family="Times,serif" font-size="14.00">real</text>
<text text-anchor="middle" x="684.11" y="-105.41" font-family="Times,serif" font-size="14.00">&quot;6&quot;</text>
</g>
<!-- x0x55bbaf2325e0&#45;&gt;x0x55bbaf233270 -->
<g id="edge19" class="edge">
<title>x0x55bbaf2325e0&#45;&gt;x0x55bbaf233270</title>
<path fill="none" stroke="black" d="M622.27,-180.14C632.3,-170 645.44,-156.71 657.03,-144.99"/>
<polygon fill="black" stroke="black" points="659.83,-147.14 664.37,-137.57 654.85,-142.22 659.83,-147.14"/>
</g>
<!-- x0x55bbaf2332f0 -->
<g id="node21" class="node">
<title>x0x55bbaf2332f0</title>
<ellipse fill="none" stroke="black" cx="775.11" cy="-116.61" rx="42.49" ry="18"/>
<text text-anchor="middle" x="775.11" y="-112.91" font-family="Times,serif" font-size="14.00">sphere</text>
</g>
<!-- x0x55bbaf2330d0&#45;&gt;x0x55bbaf2332f0 -->
<g id="edge20" class="edge">
<title>x0x55bbaf2330d0&#45;&gt;x0x55bbaf2332f0</title>
<path fill="none" stroke="black" d="M743.01,-179.37C748.47,-168.86 755.58,-155.19 761.71,-143.39"/>
<polygon fill="black" stroke="black" points="764.87,-144.91 766.37,-134.42 758.66,-141.68 764.87,-144.91"/>
</g>
<!-- x0x55bbaf2333f0 -->
<g id="node23" class="node">
<title>x0x55bbaf2333f0</title>
<ellipse fill="none" stroke="black" cx="893.11" cy="-116.61" rx="57.97" ry="26.74"/>
<text text-anchor="middle" x="893.11" y="-120.41" font-family="Times,serif" font-size="14.00">identifier</text>
<text text-anchor="middle" x="893.11" y="-105.41" font-family="Times,serif" font-size="14.00">&quot;mat2&quot;</text>
</g>
<!-- x0x55bbaf233370&#45;&gt;x0x55bbaf2333f0 -->
<g id="edge22" class="edge">
<title>x0x55bbaf233370&#45;&gt;x0x55bbaf2333f0</title>
<path fill="none" stroke="black" d="M891.55,-179.37C891.74,-171.88 891.97,-162.79 892.19,-153.91"/>
<polygon fill="black" stroke="black" points="895.7,-153.78 892.45,-143.69 888.7,-153.6 895.7,-153.78"/>
</g>
<!-- x0x55bbaf233570 -->
<g id="node22" class="node">
<title>x0x55bbaf233570</title>
<ellipse fill="none" stroke="black" cx="775.11" cy="-26.87" rx="37.45" ry="26.74"/>
<text text-anchor="middle" x="775.11" y="-30.67" font-family="Times,serif" font-size="14.00">real</text>
<text text-anchor="middle" x="775.11" y="-15.67" font-family="Times,serif" font-size="14.00">&quot;7.0&quot;</text>
</g>
<!-- x0x55bbaf2332f0&#45;&gt;x0x55bbaf233570 -->
<g id="edge21" class="edge">
<title>x0x55bbaf2332f0&#45;&gt;x0x55bbaf233570</title>
<path fill="none" stroke="black" d="M775.11,-98.28C775.11,-88.46 775.11,-75.82 775.11,-63.95"/>
<polygon fill="black" stroke="black" points="778.61,-63.82 775.11,-53.82 771.61,-63.82 778.61,-63.82"/>
</g>
</g>
</svg>
